<?xml version="1.0" standalone="no"?>
<!DOCTYPE svg PUBLIC "-//W3C//DTD SVG 20010904//EN"
 "http://www.w3.org/TR/2001/REC-SVG-20010904/DTD/svg10.dtd">
<svg version="1.0" xmlns="http://www.w3.org/2000/svg"
 width="631.000000pt" height="649.000000pt" viewBox="0 0 631.000000 649.000000"
 preserveAspectRatio="xMidYMid meet">

<g transform="translate(0.000000,649.000000) scale(0.100000,-0.100000)"
fill="currentColor" stroke="none">
<path d="M4990 6354 c-63 -8 -302 -36 -530 -64 -444 -54 -654 -79 -925 -110
-334 -38 -1044 -121 -1245 -145 -113 -13 -378 -45 -590 -70 -212 -25 -395 -48
-407 -50 -18 -4 -23 -12 -23 -34 0 -62 284 -1766 330 -1981 5 -25 18 -94 29
-155 43 -237 137 -738 251 -1340 66 -346 130 -690 143 -762 13 -73 26 -135 29
-138 2 -3 184 22 404 55 1017 154 2529 351 3424 446 30 3 63 8 73 10 29 9 20
-20 -23 -68 -37 -43 -42 -45 -107 -52 -306 -31 -2644 -347 -2750 -371 -13 -3
-23 -11 -23 -18 0 -10 60 -6 273 20 313 38 459 54 1397 158 377 42 749 84 826
93 l142 17 -30 -42 c-24 -36 -34 -43 -62 -43 -18 0 -118 -11 -222 -25 -104
-14 -245 -33 -314 -41 -69 -8 -204 -26 -300 -39 -96 -14 -276 -38 -400 -54
-201 -27 -841 -113 -1167 -157 -68 -9 -123 -21 -123 -25 0 -14 -117 -27 1210
136 113 14 261 32 330 39 69 8 316 38 549 65 234 28 430 51 436 51 10 0 75
-130 75 -150 0 -4 -28 -10 -62 -14 -148 -16 -1352 -168 -2238 -282 -151 -20
-277 -38 -279 -40 -5 -4 17 -215 23 -221 3 -3 242 25 646 77 406 52 1461 184
1680 211 364 44 510 67 536 84 19 12 24 24 24 59 0 36 -9 57 -54 124 -65 98
-84 162 -67 229 18 68 38 101 101 168 87 91 95 111 76 198 -8 40 -52 243 -96
452 -110 515 -348 1697 -434 2155 -45 238 -160 907 -225 1304 -58 357 -58 357
-145 355 -28 -1 -103 -8 -166 -15z m-1245 -1104 c100 -25 228 -86 311 -147 35
-26 64 -50 64 -53 0 -4 -46 -18 -102 -32 -114 -28 -219 -75 -270 -120 -23 -21
-27 -28 -13 -23 80 26 227 58 315 70 193 27 350 14 478 -38 291 -119 444 -455
323 -712 -50 -108 -152 -191 -293 -239 -51 -17 -158 -36 -158 -28 0 3 13 26
30 53 47 76 63 138 58 221 -2 40 -11 89 -20 108 l-15 35 -12 -70 c-41 -227
-192 -342 -439 -333 -115 4 -120 -8 -19 -41 89 -30 170 -36 273 -20 49 7 93
14 99 14 10 0 11 -4 78 -300 86 -382 110 -503 102 -522 -5 -10 -7 -26 -6 -35
3 -25 -68 -72 -163 -109 -365 -141 -1058 -203 -1331 -118 -72 22 -107 45 -104
67 1 10 -3 28 -9 42 -9 21 -93 502 -117 673 l-6 47 33 0 c58 0 161 30 243 69
71 35 91 40 175 44 201 11 368 110 461 272 43 74 35 80 -22 19 -254 -268 -694
-250 -877 36 -20 30 -37 49 -40 42 -7 -21 19 -115 43 -157 33 -57 110 -131
162 -156 54 -26 48 -32 -57 -54 -83 -18 -256 -20 -332 -4 -29 6 -91 29 -138
51 -148 71 -257 205 -289 356 -14 66 -14 172 0 232 27 119 122 250 234 324 65
44 188 94 249 102 l46 7 0 -59 c0 -33 5 -79 10 -104 11 -48 50 -140 59 -140 3
0 5 39 3 87 -13 337 242 610 619 663 96 13 272 4 364 -20z"/>
<path d="M3745 3204 c-219 -22 -447 -80 -590 -149 -222 -107 -168 -147 199
-147 345 1 680 45 953 125 136 40 166 75 100 116 -67 41 -148 53 -392 56 -126
1 -248 1 -270 -1z"/>
<path d="M1000 5880 c-30 -4 -165 -20 -300 -35 -144 -16 -259 -34 -278 -43
-50 -22 -58 -48 -44 -139 7 -42 14 -78 16 -80 2 -3 61 10 131 27 70 17 158 34
196 37 62 5 72 3 107 -20 48 -31 72 -80 72 -146 0 -44 -5 -56 -36 -90 -46 -51
-88 -66 -146 -51 -24 7 -54 18 -67 27 -20 13 -33 13 -85 3 -33 -7 -73 -18 -87
-25 -33 -18 -52 -63 -47 -115 2 -22 0 -40 -3 -40 -4 0 -19 14 -33 31 -38 44
-37 115 2 151 37 35 77 54 145 68 56 11 57 12 57 45 0 19 4 45 10 59 11 31 14
31 -80 6 -41 -11 -97 -26 -125 -33 -123 -30 -176 -165 -115 -287 22 -43 50
-70 115 -107 42 -24 52 -36 64 -76 15 -50 26 -55 69 -33 44 22 244 66 303 66
98 0 159 -60 159 -156 0 -124 -114 -187 -240 -133 -43 18 -55 20 -100 10 -28
-6 -65 -18 -81 -27 -39 -20 -62 -73 -53 -121 5 -28 4 -35 -7 -31 -24 8 -59 69
-59 102 0 71 61 123 173 146 55 11 57 13 57 43 0 18 3 42 6 55 6 22 5 23 -32
16 -92 -16 -220 -64 -248 -92 -56 -60 -65 -174 -19 -253 18 -29 74 -74 130
-103 26 -13 35 -26 44 -61 6 -25 17 -45 24 -45 7 0 33 9 57 20 58 26 242 70
291 70 89 0 161 -77 161 -172 0 -54 -21 -89 -74 -125 -39 -27 -120 -31 -160
-8 -33 19 -84 19 -148 0 -69 -21 -95 -54 -90 -117 2 -27 0 -48 -4 -48 -3 0
-18 14 -32 31 -20 23 -26 42 -26 76 0 76 52 114 201 147 22 5 26 11 27 48 1
23 5 51 8 61 5 15 2 18 -13 13 -10 -3 -47 -12 -83 -21 -91 -23 -168 -64 -204
-109 -29 -35 -31 -44 -31 -116 0 -71 3 -82 30 -122 20 -28 51 -54 91 -75 53
-28 64 -39 78 -78 10 -25 19 -45 21 -45 3 0 27 9 54 20 81 32 245 70 301 70
97 0 161 -60 167 -158 5 -67 -17 -110 -69 -142 -44 -26 -126 -27 -177 -1 -34
18 -43 19 -98 7 -33 -7 -72 -20 -86 -29 -29 -19 -52 -86 -43 -123 4 -13 3 -24
-2 -24 -20 0 -54 51 -59 87 -10 77 39 128 152 157 32 9 59 17 60 18 1 2 5 29
8 61 l6 57 -27 -6 c-161 -38 -251 -86 -281 -147 -53 -110 -4 -226 126 -296 37
-20 51 -35 62 -66 8 -22 15 -41 16 -43 1 -1 42 11 91 27 130 43 254 65 301 52
50 -14 98 -65 112 -118 36 -133 -94 -237 -218 -174 -35 18 -43 19 -104 6 -108
-22 -137 -50 -137 -130 0 -55 -13 -56 -47 -5 -63 92 3 177 160 210 l57 11 0
44 c0 24 3 50 6 58 5 14 -1 14 -53 2 -86 -20 -173 -54 -211 -82 -68 -51 -91
-155 -53 -238 22 -47 48 -73 116 -112 43 -25 52 -36 63 -76 l13 -47 30 15 c46
24 258 75 315 76 154 3 233 -172 125 -273 -37 -35 -45 -38 -96 -38 -32 0 -69
7 -87 16 -36 19 -100 13 -165 -16 -46 -20 -59 -39 -69 -99 -8 -50 -22 -49 -48
3 -16 33 -17 44 -7 77 15 48 61 81 149 105 60 17 62 18 62 50 0 18 4 44 10 58
11 31 13 31 -82 7 -190 -49 -265 -134 -238 -267 14 -65 49 -110 125 -158 35
-23 56 -46 69 -74 l18 -40 43 18 c73 31 257 74 322 74 47 1 68 -4 90 -20 49
-37 73 -81 73 -139 0 -126 -117 -189 -242 -130 -49 24 -136 6 -185 -39 -32
-29 -35 -37 -35 -84 1 -29 -3 -52 -7 -52 -4 0 -18 11 -31 25 -34 36 -39 111
-10 148 29 36 82 62 157 78 l61 13 4 55 c2 31 3 57 2 59 -4 7 -169 -40 -217
-62 -83 -37 -127 -96 -127 -169 0 -90 46 -157 140 -205 47 -24 56 -34 70 -73
l15 -45 30 17 c16 10 98 35 182 55 140 34 156 36 195 25 173 -52 157 -311 -20
-311 -23 0 -59 7 -80 16 -44 18 -104 12 -175 -18 -64 -28 -91 -67 -84 -121 l6
-42 -35 37 c-27 30 -34 46 -34 77 0 73 56 116 187 141 l61 12 4 57 c2 31 4 57
3 58 -1 4 -137 -30 -195 -49 -87 -29 -114 -49 -140 -104 -32 -64 -24 -151 17
-203 25 -30 112 -92 145 -103 5 -2 15 -53 22 -113 14 -124 33 -173 83 -214 71
-59 141 -63 433 -26 107 13 236 29 285 35 170 20 157 14 150 68 -16 127 -14
122 -43 117 -248 -40 -457 -66 -500 -63 -56 5 -91 25 -126 71 -27 37 -27 112
2 158 38 62 75 74 337 114 251 38 312 52 240 56 -49 2 -42 2 -87 -6 -36 -7
-37 -6 -47 32 -37 138 -363 1838 -540 2818 -54 298 -197 1157 -254 1525 l-22
145 -40 1 c-22 1 -65 -2 -95 -6z"/>
<path d="M2575 1448 c-181 -27 -332 -52 -334 -54 -2 -2 2 -88 8 -191 7 -103
18 -336 26 -517 8 -181 17 -331 20 -334 2 -3 49 37 102 89 54 52 133 125 176
163 l77 69 206 -103 c113 -56 207 -100 210 -97 10 10 -39 500 -87 861 -10 81
-19 152 -19 157 0 14 -34 10 -385 -43z"/>
<path d="M1915 1178 c-99 -16 -182 -32 -184 -34 -15 -14 27 -12 185 11 222 32
236 34 228 46 -7 12 -24 11 -229 -23z"/>
</g>
</svg>
