<?xml version="1.0" standalone="no"?>
<!DOCTYPE svg PUBLIC "-//W3C//DTD SVG 20010904//EN"
 "http://www.w3.org/TR/2001/REC-SVG-20010904/DTD/svg10.dtd">
<svg version="1.0" xmlns="http://www.w3.org/2000/svg"
 width="631.000000pt" height="649.000000pt" viewBox="0 0 631.000000 649.000000"
 preserveAspectRatio="xMidYMid meet">

<g transform="translate(0.000000,649.000000) scale(0.100000,-0.100000)"
fill="#4caf50" stroke="none">
<path d="M4895 6344 c-110 -13 -346 -41 -525 -63 -179 -22 -406 -50 -505 -61
-99 -12 -232 -28 -295 -35 -63 -8 -164 -19 -225 -25 -60 -6 -274 -31 -475 -55
-201 -24 -464 -55 -585 -69 -525 -62 -981 -117 -997 -122 -12 -3 -18 -15 -18
-33 0 -75 214 -1362 335 -2016 142 -764 181 -973 220 -1180 117 -611 175 -921
196 -1040 12 -71 25 -134 29 -138 4 -5 202 21 441 57 239 37 450 68 469 71 19
3 184 26 365 50 182 24 413 56 515 70 339 47 959 124 1520 190 305 35 567 67
583 69 40 8 35 -14 -15 -67 l-43 -44 -395 -48 c-342 -41 -696 -86 -1105 -140
-147 -20 -526 -74 -870 -125 -154 -22 -315 -45 -357 -50 -83 -10 -126 -26
-111 -41 8 -8 146 6 629 66 22 3 166 19 319 35 153 17 436 48 629 70 193 21
495 55 671 75 176 19 335 38 354 42 l34 6 -28 -37 c-15 -20 -31 -36 -34 -36
-15 0 -401 -51 -496 -65 -98 -15 -483 -67 -925 -124 -124 -17 -245 -33 -270
-36 -25 -3 -78 -10 -117 -15 -40 -6 -107 -15 -148 -20 -41 -5 -108 -14 -147
-20 -40 -5 -107 -14 -148 -20 -41 -6 -106 -15 -145 -20 -131 -17 -156 -23
-152 -34 2 -6 13 -10 23 -9 10 1 226 27 479 58 490 60 507 62 1030 124 511 61
915 110 960 116 l40 6 29 -70 c16 -38 28 -73 27 -78 -2 -4 -69 -16 -149 -25
-219 -26 -969 -120 -1457 -183 -236 -30 -538 -69 -670 -85 -132 -17 -253 -33
-269 -36 l-29 -6 7 -100 c4 -54 9 -105 13 -113 7 -19 22 -19 164 0 63 8 204
26 314 40 110 13 380 47 600 75 220 28 490 62 600 75 110 14 270 34 355 45 85
11 283 36 440 55 338 42 377 49 407 77 37 35 30 75 -28 164 -66 100 -79 132
-79 191 0 79 27 136 106 224 40 43 75 90 78 104 4 15 -14 122 -44 262 -235
1102 -486 2367 -585 2949 -25 148 -52 305 -60 349 -7 44 -37 222 -65 395 -28
173 -55 330 -61 348 -20 61 -45 63 -354 26z m-1265 -1075 c105 -13 175 -32
266 -74 76 -35 177 -100 207 -133 18 -20 18 -20 -40 -32 -127 -24 -286 -93
-329 -142 -19 -21 -19 -21 6 -14 233 66 423 94 564 82 242 -20 430 -137 524
-324 50 -101 65 -172 60 -283 -3 -72 -9 -97 -36 -151 -39 -79 -112 -155 -190
-196 -72 -38 -191 -74 -231 -70 l-31 3 30 45 c57 84 76 211 47 306 -17 60 -31
57 -39 -6 -28 -225 -192 -349 -445 -338 -51 2 -93 1 -93 -3 0 -12 93 -47 154
-58 78 -14 145 -13 231 3 39 8 71 13 73 11 8 -7 45 -166 106 -445 76 -348 81
-376 68 -384 -6 -3 -8 -15 -5 -25 11 -44 -142 -118 -354 -172 -402 -102 -913
-128 -1138 -58 -72 22 -107 45 -103 67 1 10 -1 23 -5 29 -16 25 -130 710 -121
725 3 4 18 8 33 8 52 0 184 40 248 75 55 30 73 35 133 35 153 0 302 60 404
162 55 55 116 148 116 177 0 5 -31 -22 -69 -60 -251 -251 -682 -226 -858 49
-18 28 -36 52 -40 52 -12 0 8 -95 31 -144 31 -67 88 -128 159 -170 l58 -34
-33 -11 c-109 -34 -309 -42 -412 -15 -271 69 -441 289 -423 549 10 132 52 228
145 327 78 84 240 170 347 184 l45 7 0 -64 c0 -35 5 -82 11 -104 12 -48 52
-145 59 -145 3 0 5 53 5 118 1 126 12 175 65 282 128 255 455 402 800 359z"/>
<path d="M3865 3213 c-202 -10 -424 -49 -567 -99 -186 -65 -297 -134 -269
-168 50 -60 565 -52 963 15 158 27 340 73 398 102 93 46 37 104 -127 132 -76
13 -299 23 -398 18z"/>
<path d="M945 5876 c-55 -7 -188 -23 -295 -36 -266 -30 -288 -42 -276 -152 10
-95 16 -111 40 -105 319 75 367 79 423 39 73 -52 85 -173 24 -236 -45 -46 -95
-60 -155 -42 -26 8 -53 20 -61 26 -19 16 -94 5 -153 -20 -48 -22 -62 -48 -62
-118 l-1 -47 -29 33 c-25 26 -30 41 -30 80 0 40 5 53 28 74 37 35 77 54 145
68 56 11 57 12 57 45 0 19 4 45 10 60 10 26 9 26 -28 19 -93 -17 -237 -65
-260 -86 -107 -100 -67 -275 82 -356 39 -22 52 -35 63 -67 7 -22 15 -45 18
-52 3 -9 16 -7 48 7 64 29 248 70 309 70 96 0 158 -61 158 -156 0 -61 -27
-107 -80 -136 -41 -23 -119 -20 -170 7 -38 20 -90 15 -156 -15 -54 -23 -79
-67 -70 -122 8 -49 -8 -48 -41 2 -61 89 6 182 150 209 27 5 49 10 51 12 2 2 6
28 9 58 l6 53 -37 -7 c-90 -17 -219 -65 -245 -92 -37 -39 -60 -109 -52 -158
12 -79 38 -119 106 -163 84 -55 96 -67 103 -108 8 -39 17 -41 78 -14 57 25
246 70 293 70 99 0 182 -111 156 -208 -11 -38 -47 -80 -88 -101 -30 -15 -113
-13 -143 4 -53 30 -165 12 -212 -35 -24 -24 -28 -37 -28 -82 l-1 -53 -29 33
c-24 26 -30 41 -30 78 0 77 51 115 202 148 24 5 26 11 30 63 2 32 3 59 3 60
-3 6 -189 -48 -218 -63 -89 -45 -136 -134 -117 -221 20 -86 56 -130 143 -172
36 -17 46 -29 56 -61 6 -21 16 -42 21 -45 4 -3 31 4 59 15 81 32 245 70 301
70 62 0 100 -18 136 -66 38 -49 44 -134 15 -182 -45 -71 -140 -92 -229 -52
-38 17 -50 18 -95 9 -101 -22 -127 -47 -133 -128 -2 -25 -3 -48 -4 -50 0 -3
-11 6 -25 19 -27 25 -41 76 -31 114 13 54 80 96 189 120 24 6 27 11 27 47 0
22 5 49 11 61 10 19 9 20 -23 13 -64 -13 -211 -66 -238 -85 -39 -28 -70 -96
-70 -154 0 -81 51 -152 152 -210 38 -21 50 -35 59 -66 7 -22 14 -40 17 -40 2
0 36 11 73 25 38 14 114 34 169 45 122 25 167 18 218 -34 32 -31 36 -42 40
-97 6 -77 -13 -117 -68 -148 -46 -26 -92 -26 -147 -2 -38 18 -47 18 -107 6
-109 -23 -129 -41 -136 -124 l-5 -56 -27 26 c-15 15 -30 44 -34 65 -15 79 50
138 178 164 l58 11 0 44 c0 24 3 50 6 58 5 13 -1 14 -38 6 -87 -19 -199 -62
-229 -86 -93 -78 -92 -228 2 -307 17 -15 49 -36 69 -46 31 -16 41 -29 55 -70
l17 -50 29 15 c49 26 260 75 320 75 92 0 158 -58 167 -148 5 -54 -10 -92 -52
-131 -35 -33 -121 -41 -176 -16 -45 20 -98 16 -166 -15 -47 -20 -62 -41 -72
-103 l-7 -41 -22 23 c-46 50 -33 131 28 169 19 11 62 28 97 38 60 17 62 18 62
50 0 18 4 44 10 59 10 26 9 26 -28 19 -20 -4 -73 -18 -117 -31 -65 -21 -88
-33 -122 -69 -53 -55 -70 -109 -54 -178 17 -73 45 -111 112 -152 47 -28 65
-46 79 -79 l18 -41 98 31 c135 44 264 69 308 61 150 -28 173 -247 32 -301 -49
-19 -91 -16 -140 10 -15 8 -38 15 -50 15 -46 0 -123 -30 -151 -60 -24 -25 -29
-38 -28 -80 1 -50 0 -51 -21 -37 -33 22 -47 58 -43 105 7 70 59 109 174 133
l61 13 4 55 c2 31 3 58 2 59 -6 9 -175 -42 -231 -69 -73 -35 -104 -77 -111
-150 -9 -95 40 -169 147 -223 42 -22 50 -31 61 -69 l12 -45 32 19 c41 24 278
82 336 82 92 1 162 -70 162 -161 0 -121 -103 -185 -220 -136 -44 18 -104 12
-175 -18 -60 -26 -91 -67 -85 -113 5 -43 -3 -44 -36 -4 -52 62 -23 148 62 182
21 8 65 21 99 27 l61 12 4 57 c2 31 3 57 3 58 -2 5 -192 -46 -240 -64 -70 -26
-115 -92 -115 -168 0 -30 5 -66 11 -82 15 -41 74 -97 129 -123 54 -25 52 -21
65 -165 8 -81 21 -117 61 -164 66 -78 143 -86 455 -47 107 14 245 31 307 38
62 7 117 15 122 18 9 5 -3 157 -13 166 -3 4 -317 -41 -396 -56 -29 -5 -76 -10
-103 -10 -159 0 -232 161 -119 263 21 19 47 38 57 41 11 3 125 22 254 41 129
20 244 39 255 42 18 6 17 7 -8 14 -27 7 -39 7 -98 -6 -34 -8 -45 7 -58 75 -5
30 -30 154 -55 275 -91 447 -262 1344 -451 2373 -48 261 -205 1197 -277 1652
l-23 145 -45 2 c-25 0 -90 -5 -145 -11z"/>
<path d="M2610 1455 c-157 -24 -304 -47 -327 -50 l-43 -6 0 -47 c0 -26 4 -105
9 -177 6 -71 13 -200 16 -285 12 -303 25 -533 30 -538 3 -3 40 28 83 69 42 42
121 115 174 163 l97 87 205 -102 c113 -57 209 -100 212 -96 14 14 -66 793
-101 995 -7 41 5 41 -355 -13z"/>
<path d="M1915 1179 c-99 -17 -181 -32 -184 -35 -15 -15 28 -13 186 10 221 33
235 35 227 47 -7 13 -26 11 -229 -22z"/>
</g>
</svg>
